<svg width="15" height="10" viewBox="0 0 15 10" fill="none" xmlns="http://www.w3.org/2000/svg">
<path  d="M7.90182 0.00958252C4.7269 0.00958252 2.01551 1.98438 0.916992 4.77196C2.01551 7.55954 4.7269 9.53434 7.90182 9.53434C11.0767 9.53434 13.7881 7.55954 14.8866 4.77196C13.7881 1.98438 11.0767 0.00958252 7.90182 0.00958252ZM7.90176 7.94689C6.1492 7.94689 4.72684 6.52452 4.72684 4.77197C4.72684 3.01941 6.1492 1.59704 7.90176 1.59704C9.65431 1.59704 11.0767 3.01941 11.0767 4.77197C11.0767 6.52452 9.65431 7.94689 7.90176 7.94689ZM7.90176 2.86701C6.84768 2.86701 5.99681 3.71789 5.99681 4.77197C5.99681 5.82604 6.84768 6.67692 7.90176 6.67692C8.95583 6.67692 9.80671 5.82604 9.80671 4.77197C9.80671 3.71789 8.95583 2.86701 7.90176 2.86701Z" fill="#DFE2E6"/>
<mask id="mask0_1_57" style="mask-type:alpha" maskUnits="userSpaceOnUse" x="0" y="0" width="15" height="10">
<path  d="M7.90182 0.00958252C4.7269 0.00958252 2.01551 1.98438 0.916992 4.77196C2.01551 7.55954 4.7269 9.53434 7.90182 9.53434C11.0767 9.53434 13.7881 7.55954 14.8866 4.77196C13.7881 1.98438 11.0767 0.00958252 7.90182 0.00958252ZM7.90176 7.94689C6.1492 7.94689 4.72684 6.52452 4.72684 4.77197C4.72684 3.01941 6.1492 1.59704 7.90176 1.59704C9.65431 1.59704 11.0767 3.01941 11.0767 4.77197C11.0767 6.52452 9.65431 7.94689 7.90176 7.94689ZM7.90176 2.86701C6.84768 2.86701 5.99681 3.71789 5.99681 4.77197C5.99681 5.82604 6.84768 6.67692 7.90176 6.67692C8.95583 6.67692 9.80671 5.82604 9.80671 4.77197C9.80671 3.71789 8.95583 2.86701 7.90176 2.86701Z" fill="white"/>
</mask>
<g mask="url(#mask0_1_57)">
</g>
</svg>
