<svg width="19" height="11" viewBox="0 0 19 11" fill="none" xmlns="http://www.w3.org/2000/svg">
<path  d="M10.0121 3.55127C9.20775 1.27379 6.83715 -0.258633 4.18715 0.266287C2.24833 0.655744 0.673569 2.2051 0.267179 4.14392C-0.42707 7.42044 2.06207 10.3244 5.22852 10.3244C7.43827 10.3244 9.31782 8.91054 10.0121 6.93785H13.695V8.63114C13.695 9.56245 14.457 10.3244 15.3883 10.3244C16.3196 10.3244 17.0816 9.56245 17.0816 8.63114V6.93785C18.0129 6.93785 18.7748 6.17587 18.7748 5.24456C18.7748 4.31325 18.0129 3.55127 17.0816 3.55127H10.0121ZM5.22858 6.93786C4.29728 6.93786 3.53529 6.17588 3.53529 5.24457C3.53529 4.31326 4.29728 3.55128 5.22858 3.55128C6.15989 3.55128 6.92188 4.31326 6.92188 5.24457C6.92188 6.17588 6.15989 6.93786 5.22858 6.93786Z" fill="#fb0000"/>
<mask id="mask0_1_50" style="mask-type:alpha" maskUnits="userSpaceOnUse" x="0" y="0" width="19" height="11">
<path  d="M10.0121 3.55127C9.20775 1.27379 6.83715 -0.258633 4.18715 0.266287C2.24833 0.655744 0.673569 2.2051 0.267179 4.14392C-0.42707 7.42044 2.06207 10.3244 5.22852 10.3244C7.43827 10.3244 9.31782 8.91054 10.0121 6.93785H13.695V8.63114C13.695 9.56245 14.457 10.3244 15.3883 10.3244C16.3196 10.3244 17.0816 9.56245 17.0816 8.63114V6.93785C18.0129 6.93785 18.7748 6.17587 18.7748 5.24456C18.7748 4.31325 18.0129 3.55127 17.0816 3.55127H10.0121ZM5.22858 6.93786C4.29728 6.93786 3.53529 6.17588 3.53529 5.24457C3.53529 4.31326 4.29728 3.55128 5.22858 3.55128C6.15989 3.55128 6.92188 4.31326 6.92188 5.24457C6.92188 6.17588 6.15989 6.93786 5.22858 6.93786Z" fill="white"/>
</mask>
<g mask="url(#mask0_1_50)">
</g>
</svg>