<svg width="31" height="31" viewBox="0 0 31 31" fill="none" xmlns="http://www.w3.org/2000/svg">
<path  d="M0.112573 14.2008C0.0474356 14.6282 0.0125732 15.0606 0.0125732 15.497V14.2008H0.112573Z" fill="url(#paint0_linear_1_129)"/>
<rect y="14.2008" width="0.1" height="2.58283" fill="url(#paint1_linear_1_129)"/>
<path  d="M30.958 15.5C30.958 15.7006 30.9525 15.9013 30.945 16.0989V16.7907H30.9039C30.69 19.3988 29.8166 21.9093 28.3658 24.0857C27.0405 26.0755 25.2754 27.7329 23.2075 28.9293C21.6127 29.8514 19.8655 30.479 18.0492 30.7823C17.2021 30.9237 16.3448 30.9948 15.486 30.995H7.74054V15.495C7.73855 12.2104 9.80625 9.28222 12.8989 8.18992C13.7264 7.89784 14.5976 7.74924 15.475 7.7505H15.4795C19.7506 7.7505 23.213 11.2185 23.213 15.4965C23.213 19.7745 19.7506 23.2425 15.4795 23.2425V18.0758C16.8846 18.0719 18.0276 16.9413 18.0492 15.5341V15.4594C18.0279 14.052 16.8848 12.9211 15.4795 12.9172H15.475C14.0536 12.9191 12.9018 14.0728 12.8999 15.4965V25.8298H15.485C16.3494 25.8306 17.2104 25.723 18.0482 25.5098C19.8397 25.0518 21.4742 24.1169 22.7783 22.8041C22.9285 22.6536 23.0693 22.5031 23.2075 22.3471C24.5894 20.7934 25.4659 18.8549 25.72 16.7897C25.8262 15.932 25.8262 15.0645 25.72 14.2068C25.4658 12.1417 24.5894 10.2031 23.2075 8.6494C23.0693 8.4939 22.927 8.34091 22.7783 8.19243C21.4742 6.87961 19.8397 5.94467 18.0482 5.4867C17.2104 5.27344 16.3494 5.16593 15.485 5.16667H15.4785C14.6084 5.16663 13.7417 5.27617 12.8989 5.49272C11.1161 5.95289 9.48996 6.88544 8.19127 8.19243C8.03501 8.34893 7.88477 8.50978 7.74054 8.67498C6.37251 10.2228 5.50457 12.1493 5.25102 14.2008C5.19759 14.631 5.17083 15.064 5.17089 15.4975V30.9975H0.0125732V15.4975C0.0125732 15.0611 0.0316039 14.6287 0.0671613 14.2013C0.735298 6.1735 7.43587 -0.000972297 15.4785 1.28047e-07H15.485C16.3438 -0.000110163 17.2011 0.0710284 18.0482 0.212686C19.8645 0.515804 21.6117 1.14326 23.2065 2.06516C25.2744 3.26177 27.0395 4.91931 28.3648 6.90929C29.8158 9.08589 30.6893 11.5969 30.9029 14.2053H30.944V14.8981C30.9525 15.0987 30.958 15.2994 30.958 15.5Z" fill="url(#paint2_linear_1_129)"/>
<defs>
<linearGradient id="paint0_linear_1_129" x1="0.0125732" y1="15.497" x2="0.112573" y2="15.497" gradientUnits="userSpaceOnUse">
<stop stop-color="#E41E26"/>
<stop offset="0.19" stop-color="#E52A28"/>
<stop offset="1" stop-color="#EB5832"/>
</linearGradient>
<linearGradient id="paint1_linear_1_129" x1="0" y1="16.7834" x2="0.1" y2="16.7834" gradientUnits="userSpaceOnUse">
<stop stop-color="#E41E26"/>
<stop offset="0.19" stop-color="#E52A28"/>
<stop offset="1" stop-color="#EB5832"/>
</linearGradient>
<linearGradient id="paint2_linear_1_129" x1="5.30482e-05" y1="30.4749" x2="29.9046" y2="30.4749" gradientUnits="userSpaceOnUse">
<stop stop-color="#E41E26"/>
<stop offset="0.19" stop-color="#E52A28"/>
<stop offset="1" stop-color="#EB5832"/>
</linearGradient>
</defs>
</svg>
